<svg xmlns="http://www.w3.org/2000/svg" version="1.1" xmlns:xlink="http://www.w3.org/1999/xlink" xmlns:svgjs="http://svgjs.dev/svgjs" width="1500" height="693" viewBox="0 0 1500 693"><g transform="matrix(1,0,0,1,-0.9084522071641459,-0.5828379794123748)"><svg viewBox="0 0 396 183" data-background-color="#ffffff" preserveAspectRatio="xMidYMid meet" height="693" width="1500" xmlns="http://www.w3.org/2000/svg" xmlns:xlink="http://www.w3.org/1999/xlink"><g id="tight-bounds" transform="matrix(1,0,0,1,0.24008861730862918,0.15417466339997077)"><svg viewBox="0 0 395.52 182.69191287384115" height="182.69191287384115" width="395.52"><g><svg viewBox="0 0 395.52 182.69191287384115" height="182.69191287384115" width="395.52"><g><svg viewBox="0 0 395.52 182.69191287384115" height="182.69191287384115" width="395.52"><g id="textblocktransform"><svg viewBox="0 0 395.52 182.69191287384115" height="182.69191287384115" width="395.52" id="textblock"><g><svg viewBox="0 0 395.52 182.69191287384115" height="182.69191287384115" width="395.52"><path d="M394.594 39.184C392.735 20.221 387.435 14.949 387.435 14.949 371.165-4.584 350.86-0.374 332.619 2.433 300.414 2.547 268.339 6.719 236.208 8.956 168.767 9.298 100.749 3.685 33.643 17.528 27.339 21.776-6.54 18.362 1.121 41.611 3.129 51.283 10.456 62.016 10.232 70.891 11.236 72.446 12.631 68.881 13.226 71.118 15.309 77.149 18.711 74.304 21.501 77.869 17.614 87.389 20.403 95.315 23.062 103.621 18.377 105.783 12.371 104.759 9.675 111.927 9.396 117.123 7.89 116.137 6.235 115.91 5.026 115.758 2.59 116.327 2.999 117.958 4.394 123.533-1.594 126.757 2.162 132.218-0.422 138.135 3.948 143.255 3.353 149.664 3.278 150.954 3.687 152.054 4.338 152.357 7.22 153.988 3.018 157.174 3.464 160.625 33.029 184.216 65.104 167.907 95.394 178.754 103.259 171.169 97.346 181.447 100.489 179.854 102.943 177.996 104.728 185.695 107.499 181.333 107.927 180.082 107.276 177.123 108.8 177.692 109.6 177.996 110.307 177.92 110.418 176.175 110.586 173.558 109.117 175.189 108.726 173.824 112.947 166.921 111.906 183.343 115.866 182.661 115.68 180.651 114.528 177.768 116.889 178.147 119.232 175.265 119.306 172.876 121.389 179.361 121.463 180.764 121.835 181.75 122.43 182.433 128.938 175.379 135.409 184.936 142.233 181.75 146.417 178.261 150.433 183.647 154.672 182.319 156.16 181.257 157.666 179.361 159.098 182.547 176.632 183.23 195.319 180.385 211.943 182.661 256.364 178.413 303.836 184.405 350.674 178.792 361.719 176.63 373.192 173.558 383.958 171.093 383.958 171.093 392.679 164.342 392.679 134.001S394.538 107.452 394.817 83.293C395.096 59.133 396.398 58.147 394.538 39.184Z" opacity="1" fill="#ffc12e" data-fill-palette-color="tertiary"></path><g transform="matrix(1,0,0,1,55.76832,26.230666666666668)"><svg width="283.98335999999995" viewBox="1.81 -36.74 80.75999999999999 37.03" height="130.23057954050782" data-palette-color="#ffffff"><path d="M10.86-3.44L14.94-3.44Q15.58-3.44 15.58-1.95L15.58-1.95Q15.58-0.78 15.21-0.39 14.84 0 14.58 0L14.58 0 3.05 0Q2.44 0 2.44-1.39L2.44-1.39Q2.44-2.59 3.13-3.27L3.13-3.27Q3.32-3.47 3.88-3.47L3.88-3.47 3.98-3.47Q4.08-3.44 4.17-3.44L4.17-3.44Q4.74-3.44 5.32-3.52L5.32-3.52Q6.03-3.56 6.42-3.69L6.42-3.69Q7.1-3.91 7.1-4.49L7.1-4.49 7.1-32.91Q7.1-33.3 6.79-33.3L6.79-33.3 2.81-33.3Q2.1-33.3 1.86-34.62L1.86-34.62Q1.81-34.96 1.81-35.3L1.81-35.3Q1.81-36.74 2.44-36.74L2.44-36.74 9.72-36.74Q10.4-36.74 10.72-36.04L10.72-36.04 24.12-7.81 35.86-36.25Q36.08-36.74 36.5-36.74L36.5-36.74 45.65-36.74Q46.26-36.74 46.26-35.03L46.26-35.03Q46.26-33.3 45.41-33.3L45.41-33.3 41.02-33.3 41.02-3.44 45.12-3.44Q45.75-3.44 45.75-1.95L45.75-1.95Q45.75-0.78 45.39-0.39 45.02 0 44.75 0L44.75 0 31.81 0Q31.2 0 31.2-1.39L31.2-1.39Q31.2-2.59 31.88-3.27L31.88-3.27Q32.08-3.47 32.64-3.47L32.64-3.47 32.74-3.47Q32.84-3.44 32.93-3.44L32.93-3.44Q33.5-3.44 34.08-3.52L34.08-3.52Q34.79-3.56 35.18-3.69L35.18-3.69Q35.86-3.91 35.86-4.49L35.86-4.49 35.86-27.32 24.9 0Q24.61 0.29 23.93 0.29L23.93 0.29Q22.61 0.29 22.09 0L22.09 0 10.86-24.98 10.86-3.44ZM49.85-35.21L49.85-35.21Q49.85-36.74 50.49-36.74L50.49-36.74 64.69-36.74Q74.34-36.74 78.59-32.1L78.59-32.1Q82.54-27.78 82.57-18.51L82.57-18.51 82.57-18.43Q82.57-9.16 76.98-4.3L76.98-4.3Q72.04-0.02 64.69 0L64.69 0 51.19 0Q50.53 0 50.53-1.39L50.53-1.39Q50.53-2.51 51.17-3.25L51.17-3.25Q51.34-3.44 52-3.44L52-3.44Q52.63-3.44 53.34-3.52L53.34-3.52Q54.07-3.56 54.47-3.69L54.47-3.69Q55.15-3.91 55.15-4.49L55.15-4.49 55.15-32.96Q55.15-33.3 54.86-33.3L54.86-33.3 50.85-33.3Q50.17-33.3 49.92-34.57L49.92-34.57Q49.88-34.91 49.85-35.21ZM60.3-32.98L60.3-3.76 63.89-3.76Q69.11-3.76 72.78-7.15L72.78-7.15Q76.88-10.99 76.88-17.65L76.88-17.65Q76.88-29.08 69.75-32.03L69.75-32.03Q67.45-32.98 64.5-32.98L64.5-32.98 60.3-32.98Z" opacity="1" transform="matrix(1,0,0,1,0,0)" fill="#ffffff" class="wordmark-text-0" data-fill-palette-color="quaternary" id="text-0"></path></svg></g></svg></g></svg></g></svg></g><g></g></svg></g><defs></defs></svg><rect width="395.52" height="182.69191287384115" fill="none" stroke="none" visibility="hidden"></rect></g></svg></g></svg>